<svg width="65" height="64" viewBox="0 0 65 64" fill="none" xmlns="http://www.w3.org/2000/svg">
<path fill-rule="evenodd" clip-rule="evenodd" d="M58.0373 64H7.03399C3.36653 64 0.466675 61.1064 0.466675 57.4468V6.55319C0.466675 2.89362 3.36653 0 7.03399 0H58.0373C61.7048 0 64.6046 2.89362 64.6046 6.55319V57.4468C64.6046 61.1064 61.7048 64 58.0373 64ZM16.3297 52.0855C15.9886 52.0855 15.5621 52.0004 15.221 51.9153C13.6857 51.3196 12.9181 49.6175 13.5152 48.0855L26.9057 13.7877C27.5027 12.2558 29.2085 11.4898 30.7437 12.0855C32.2789 12.6813 33.0465 14.3834 32.4495 15.9153L19.1443 50.2132C18.7178 51.4047 17.5238 52.0855 16.3297 52.0855ZM35.52 47.7445C36.1171 48.3403 36.8847 48.5956 37.6523 48.5956C38.4199 48.5956 39.1875 48.3403 39.7845 47.7445L50.2752 37.3616C52.1516 35.4892 52.1516 32.3403 50.2752 30.4679L39.7845 19.9999C38.6758 18.8084 36.7994 18.8084 35.6053 19.9999C34.4113 21.1063 34.4113 22.9786 35.6053 24.1701L45.2431 33.8722L35.52 43.5743C34.326 44.6807 34.326 46.5531 35.52 47.7445Z" fill="#0065FF"/>
</svg>
